

<svg version="1.0" xmlns="http://www.w3.org/2000/svg" width="385px" height="212px" viewBox="0 0 385 212" preserveAspectRatio="xMidYMid meet">
 <g fill="#ffffff">
  <path d="M0 136.5 l0 -75.5 23 0 23 0 0 75.5 0 75.5 -23 0 -23 0 0 -75.5z m41 0.5 l0 -71 -18.5 0 -18.5 0 0 71 0 71 18.5 0 18.5 0 0 -71z"></path>
  <path d="M66 106 l0 -106 23.5 0 23.5 0 0 83 0 83 3.5 0 3.5 0 0 -83 0 -83 23.5 0 23.5 0 0 106 0 106 -50.5 0 -50.5 0 0 -106z m96 0.5 l0 -101.5 -18 0 -18 0 0 83 0 83 -9 0 -9 0 0 -83 0 -83 -18.5 0 -18.5 0 0 101.5 0 101.5 45.5 0 45.5 0 0 -101.5z"></path>
  <path d="M175 106 l0 -106 23 0 23 0 0 106 0 106 -23 0 -23 0 0 -106z m41 0.5 l0 -101.5 -18 0 -18 0 0 101.5 0 101.5 18 0 18 0 0 -101.5z"></path>
  <path d="M229 106 l0 -106 51 0 51 0 0 83 0 83 3.5 0 3.5 0 0 -83 0 -83 23.5 0 23.5 0 0 106 0 106 -50.5 0 -50.5 0 0 -83 0 -83 -4 0 -4 0 0 83 0 83 -23.5 0 -23.5 0 0 -106z m42 18.5 l0 -83.5 9 0 9 0 0 83.5 0 83.5 45.5 0 45.5 0 0 -101.5 0 -101.5 -18.5 0 -18.5 0 0 83 0 83 -9 0 -9 0 0 -83 0 -83 -45.5 0 -45.5 0 0 101.5 0 101.5 18.5 0 18.5 0 0 -83.5z"></path>
  <path d="M0 23 l0 -23 23 0 23 0 0 23 0 23 -23 0 -23 0 0 -23z m41 -0.5 l0 -18.5 -18.5 0 -18.5 0 0 18.5 0 18.5 18.5 0 18.5 0 0 -18.5z"></path>
 </g>
</svg>